# xmcd
#
# Track frame offsets:
#	150
#	18011
#	37721
#	53040
#	70619
#	85691
#	99994
#	115783
#	130092
#	146811
#	159822
#	175373
#	192065
#	206360
#
# Disc length: 2948 seconds
#
# Revision: 1
# Processed by: cddbd v1.5.2PL0 Copyright (c) Steve Scherf et al.
# Submitted via: audiograbber 1.83.01
#
DISCID=a10b820e
DTITLE=Hugo and Tiago - Os Corações Não São Iguais
DYEAR=2006
DGENRE=Sertanejo
TTITLE0=Fora De Área
TTITLE1=Os Corações Não São Iguais
TTITLE2=Não Te Quero Mais
TTITLE3=Amor Demais
TTITLE4=Cowboy Brasileiro
TTITLE5=Pra Falar A Verdade
TTITLE6=Por Toda Vida
TTITLE7=Me Ama E Me Odeia
TTITLE8=Igual A Todo Rapaz
TTITLE9=Nóis Enrola Mas Não Casa
TTITLE10=Vou Te Amar
TTITLE11=Era Tão Bom
TTITLE12=Aguenta Coração
TTITLE13=Sábado De Festa
EXTD=
EXTT0=
EXTT1=
EXTT2=
EXTT3=
EXTT4=
EXTT5=
EXTT6=
EXTT7=
EXTT8=
EXTT9=
EXTT10=
EXTT11=
EXTT12=
EXTT13=
PLAYORDER=
